<svg width="213" height="48" viewBox="0 0 213 48" fill="none" xmlns="http://www.w3.org/2000/svg">
<path d="M48 30C48 39.9411 39.9411 48 30 48H0V36H30C33.3137 36 36 33.3137 36 30V18H48V30Z" fill="currentColor"/>
<path d="M74.4814 4C77.2345 4 79.6756 4.4764 81.8047 5.42871C83.9705 6.34446 85.6597 7.73636 86.8711 9.60449C88.1191 11.436 88.7432 13.7436 88.7432 16.5273V18.1758H81.585V16.5273C81.585 15.0622 81.2914 13.8899 80.7041 13.0107C80.1535 12.0951 79.3457 11.4361 78.2812 11.0332C77.2167 10.5936 75.9498 10.373 74.4814 10.373C72.2792 10.3731 70.6456 10.7944 69.5811 11.6367C68.5532 12.4426 68.0391 13.5607 68.0391 14.9893C68.0391 15.9414 68.2778 16.747 68.7549 17.4062C69.2688 18.0656 70.0215 18.6151 71.0127 19.0547C72.0038 19.4942 73.2707 19.8793 74.8125 20.209L76.0781 20.4834C78.8312 21.0695 81.2174 21.8206 83.2363 22.7363C85.292 23.6521 86.8894 24.8605 88.0273 26.3623C89.1653 27.8641 89.7344 29.7875 89.7344 32.1318C89.7344 34.4761 89.1284 36.546 87.917 38.3408C86.7423 40.0989 85.0539 41.491 82.8516 42.5166C80.6858 43.5056 78.1159 44 75.1426 44C72.1692 44 69.5445 43.4685 67.2686 42.4062C64.9926 41.344 63.2116 39.8237 61.9268 37.8457C60.6421 35.8678 60 33.4868 60 30.7031V29.165H67.1582V30.7031C67.1582 33.0108 67.874 34.7507 69.3057 35.9229C70.7373 37.0584 72.6831 37.626 75.1426 37.626C77.6387 37.626 79.4927 37.1316 80.7041 36.1426C81.952 35.1536 82.5761 33.8899 82.5762 32.3516C82.5762 31.2894 82.2636 30.4289 81.6396 29.7695C81.0523 29.1102 80.1716 28.5787 78.9971 28.1758C77.8592 27.7363 76.4642 27.3331 74.8125 26.9668L73.5459 26.6924C70.9028 26.1063 68.6266 25.3733 66.7178 24.4941C64.8456 23.5784 63.395 22.3881 62.3672 20.9229C61.3762 19.4578 60.8809 17.553 60.8809 15.209C60.8809 12.8647 61.4319 10.8681 62.5332 9.21973C63.6712 7.53479 65.2496 6.25215 67.2686 5.37305C69.3241 4.45742 71.7285 4.00002 74.4814 4Z" fill="currentColor"/>
<path fill-rule="evenodd" clip-rule="evenodd" d="M197.142 4C201.987 4.00001 205.842 5.33676 208.705 8.01074C211.568 10.6481 213 14.4397 213 19.3848V28.6152C213 33.5603 211.568 37.37 208.705 40.0439C205.842 42.6813 201.987 44 197.142 44C192.296 44 188.441 42.6813 185.578 40.0439C182.715 37.37 181.283 33.5603 181.283 28.6152V19.3848C181.283 14.4397 182.715 10.6481 185.578 8.01074C188.441 5.33675 192.296 4 197.142 4ZM197.142 10.4834C194.462 10.4834 192.351 11.2708 190.81 12.8457C189.304 14.4208 188.552 16.5277 188.552 19.165V28.835C188.552 31.4723 189.305 33.5782 190.81 35.1533C192.351 36.7284 194.462 37.5166 197.142 37.5166C199.858 37.5166 201.969 36.7284 203.474 35.1533C204.979 33.5782 205.731 31.4723 205.731 28.835V19.165C205.731 16.5277 204.979 14.4208 203.474 12.8457C201.969 11.2708 199.858 10.4834 197.142 10.4834Z" fill="currentColor"/>
<path d="M118.832 11.3623H101.322V20.5381H117.291V27.1318H101.322V36.6367H119.163V43.2305H94.0537V4.76953H118.832V11.3623Z" fill="currentColor"/>
<path d="M150.863 11.3623H139.631V43.2305H132.362V11.3623H121.129V4.76953H150.863V11.3623Z" fill="currentColor"/>
<path d="M161.98 36.6367H179.601V43.2305H154.712V4.76953H161.98V36.6367Z" fill="currentColor"/>
<path d="M24 17C27.8659 17.0001 31 20.134 31 24C30.9999 27.8659 27.8659 30.9999 24 31C20.1341 31 17.0001 27.8659 17 24C17 20.134 20.134 17 24 17Z" fill="currentColor"/>
<path d="M48 12H18C14.6863 12 12 14.6863 12 18V30H0V18C2.29125e-06 8.05888 8.05888 2.86315e-06 18 0H48V12Z" fill="currentColor"/>
</svg>
