<svg width="217" height="48" viewBox="0 0 217 48" fill="none" xmlns="http://www.w3.org/2000/svg">
<path d="M48 30C48 39.9411 39.9411 48 30 48H0V36H30C33.3137 36 36 33.3137 36 30V18H48V30Z" fill="currentColor"/>
<path d="M24 17C27.8659 17.0001 31 20.134 31 24C30.9999 27.8659 27.8659 30.9999 24 31C20.1341 31 17.0001 27.8659 17 24C17 20.134 20.134 17 24 17Z" fill="currentColor"/>
<path d="M48 12H18C14.6863 12 12 14.6863 12 18V30H0V18C2.29125e-06 8.05888 8.05888 2.86315e-06 18 0H48V12Z" fill="currentColor"/>
<path d="M79.103 43.6613C76.1373 43.6613 73.5195 43.1304 71.2494 42.0687C68.9794 41.0069 67.2037 39.4874 65.9222 37.5103C64.6407 35.5332 64 33.1533 64 30.3707V28.833H71.1396V30.3707C71.1396 32.6773 71.8535 34.4165 73.2815 35.5881C74.7094 36.7231 76.6499 37.2906 79.103 37.2906C81.5927 37.2906 83.4416 36.7963 84.6499 35.8078C85.8947 34.8192 86.5172 33.5561 86.5172 32.0183C86.5172 30.9565 86.206 30.0961 85.5835 29.4371C84.9977 28.778 84.119 28.2471 82.9474 27.8444C81.8124 27.405 80.4211 27.0023 78.7735 26.6362L77.5103 26.3616C74.8741 25.7757 72.6041 25.0435 70.7002 24.1648C68.8329 23.2494 67.3867 22.0595 66.3616 20.595C65.373 19.1304 64.8787 17.2265 64.8787 14.8833C64.8787 12.54 65.4279 10.5446 66.5263 8.89703C67.6613 7.21281 69.2357 5.93135 71.2494 5.05263C73.2998 4.1373 75.6979 3.67963 78.4439 3.67963C81.1899 3.67963 83.6247 4.15561 85.7483 5.10755C87.9085 6.02288 89.5927 7.41419 90.8009 9.28146C92.0458 11.1121 92.6682 13.4188 92.6682 16.2014V17.849H85.5286V16.2014C85.5286 14.7368 85.2357 13.5652 84.6499 12.6865C84.1007 11.7712 83.2952 11.1121 82.2334 10.7094C81.1716 10.27 79.9085 10.0503 78.4439 10.0503C76.2471 10.0503 74.6179 10.4714 73.5561 11.3135C72.5309 12.119 72.0183 13.2357 72.0183 14.6636C72.0183 15.6156 72.2563 16.4211 72.7323 17.0801C73.2449 17.7391 73.9954 18.2883 74.984 18.7277C75.9725 19.167 77.2357 19.5515 78.7735 19.881L80.0366 20.1556C82.7826 20.7414 85.1625 21.492 87.1762 22.4073C89.2265 23.3227 90.8192 24.5309 91.9542 26.032C93.0892 27.5332 93.6568 29.4554 93.6568 31.7986C93.6568 34.1419 93.0526 36.2105 91.8444 38.0046C90.6728 39.762 88.9886 41.1533 86.7918 42.1785C84.6316 43.1671 82.0686 43.6613 79.103 43.6613Z" fill="currentColor"/>
<path d="M97.965 42.8924V4.44851H122.679V11.0389H105.214V20.2105H121.141V26.8009H105.214V36.3021H123.008V42.8924H97.965Z" fill="currentColor"/>
<path d="M136.173 42.8924V11.0389H124.97V4.44851H154.626V11.0389H143.423V42.8924H136.173Z" fill="currentColor"/>
<path d="M158.465 42.8924V4.44851H165.714V36.3021H183.289V42.8924H158.465Z" fill="currentColor"/>
<path d="M200.784 43.6613C195.951 43.6613 192.106 42.3433 189.25 39.7071C186.395 37.0343 184.967 33.2265 184.967 28.2838V19.0572C184.967 14.1144 186.395 10.3249 189.25 7.68879C192.106 5.01602 195.951 3.67963 200.784 3.67963C205.617 3.67963 209.461 5.01602 212.317 7.68879C215.173 10.3249 216.601 14.1144 216.601 19.0572V28.2838C216.601 33.2265 215.173 37.0343 212.317 39.7071C209.461 42.3433 205.617 43.6613 200.784 43.6613ZM200.784 37.1808C203.493 37.1808 205.598 36.3936 207.099 34.8192C208.601 33.2449 209.351 31.1396 209.351 28.5034V18.8375C209.351 16.2014 208.601 14.0961 207.099 12.5217C205.598 10.9474 203.493 10.1602 200.784 10.1602C198.111 10.1602 196.006 10.9474 194.468 12.5217C192.967 14.0961 192.216 16.2014 192.216 18.8375V28.5034C192.216 31.1396 192.967 33.2449 194.468 34.8192C196.006 36.3936 198.111 37.1808 200.784 37.1808ZM193.589 48L189.031 46.1327L208.033 0L212.591 1.86728L193.589 48Z" fill="currentColor"/>
</svg>
