<svg width="48" height="48" viewBox="0 0 48 48" fill="none" xmlns="http://www.w3.org/2000/svg">
<path d="M48 30C48 39.9411 39.9411 48 30 48H0V36H30C33.3137 36 36 33.3137 36 30V18H48V30Z" fill="currentColor"/>
<path d="M24 17C27.8659 17.0001 31 20.134 31 24C30.9999 27.8659 27.8659 30.9999 24 31C20.1341 31 17.0001 27.8659 17 24C17 20.134 20.134 17 24 17Z" fill="currentColor"/>
<path d="M48 12H18C14.6863 12 12 14.6863 12 18V30H0V18C2.29125e-06 8.05888 8.05888 2.86315e-06 18 0H48V12Z" fill="currentColor"/>
</svg>
