<svg xmlns="http://www.w3.org/2000/svg" width="16" height="16" viewBox="0 0 16 16" fill="none"><metadata><rdf:RDF xmlns:rdf="http://www.w3.org/1999/02/22-rdf-syntax-ns#" xmlns:dc="http://purl.org/dc/elements/1.1/"><rdf:Description><dc:creator>RealFaviconGenerator</dc:creator><dc:source>https://realfavicongenerator.net</dc:source></rdf:Description></rdf:RDF></metadata><rect width="16" height="16" rx="2" fill="#161B1D"></rect><path d="M14 9.5C14 11.9853 11.9853 14 9.5 14H2V11H9.5C10.3284 11 11 10.3284 11 9.5V6.5H14V9.5Z" fill="#F9FBFB"></path><path d="M8 6.25C8.96649 6.25001 9.75 7.03351 9.75 8C9.74998 8.96647 8.96647 9.74999 8 9.75C7.03352 9.75 6.25002 8.96648 6.25 8C6.25 7.0335 7.0335 6.25 8 6.25Z" fill="#F9FBFB"></path><path d="M14 5H6.5C5.67157 5 5 5.67157 5 6.5V9.5H2V6.5C2 4.01472 4.01472 2 6.5 2H14V5Z" fill="#F9FBFB"></path></svg>